# xmcd
#
# Track frame offsets: 
#        150
#        12062
#        28745
#        40277
#        57622
#        68620
#        80407
#        96505
#        108765
#        118157
#        130702
#        146775
#        161092
#        176792
#        190000
#        203387
#        217005
#        228375
#        243615
#
# Disc length: 3536 seconds
#
# Revision: 9
# Processed by: cddbd v1.5.2PL0 Copyright (c) Steve Scherf et al.
# Submitted via: ExactAudioCopy v0.99pb4
#
DISCID=0f0dce13
DTITLE=The Byrds - Sweetheart Of The Rodeo
DYEAR=1968
DGENRE=Rock
TTITLE0=You Ain't Going Nowhere
TTITLE1=I Am A Pilgrim
TTITLE2=The Christian Life
TTITLE3=You Don't Miss Your Water
TTITLE4=You're Still On My Mind
TTITLE5=Pretty Boy Floyd
TTITLE6=Hickory Wind
TTITLE7=One Hundred Years From Now
TTITLE8=Blue Canadian Rockies
TTITLE9=Life In Prison
TTITLE10=Nothing Was Delivered
TTITLE11=You Got A Reputation
TTITLE12=Lazy Days
TTITLE13=Pretty Polly
TTITLE14=The Christian Life [Rehearsal - Take #11]
TTITLE15=Life In Prison [Rehearsal - Take #11]
TTITLE16=You're Still On My Mind [Rehearsal - Take #43]
TTITLE17=One Hundred Years From Now [Rehearsal - Take #2]
TTITLE18=All I Have Is Memories [Instrumental]
EXTD=
EXTT0=
EXTT1=
EXTT2=
EXTT3=
EXTT4=
EXTT5=
EXTT6=
EXTT7=
EXTT8=
EXTT9=
EXTT10=
EXTT11=
EXTT12=
EXTT13=
EXTT14=
EXTT15=
EXTT16=
EXTT17=
EXTT18=
PLAYORDER=
